<svg width="29" height="31" viewBox="0 0 29 31" fill="currentColor"
    xmlns="http://www.w3.org/2000/svg">
    <g filter="url(#filter0_d_67_4)">
        <path opacity="0.999"
            d="M14.4961 1.50293C8.70893 1.50293 3.99998 6.21384 4 12.001C4 17.7881 8.70895 22.4971 14.4961 22.4971C20.2832 22.4971 24.9941 17.7881 24.9941 12.001C24.9942 6.21384 20.2833 1.50293 14.4961 1.50293ZM9.58008 6.84277H19.418C19.6828 6.84307 19.9367 6.94806 20.1242 7.13475C20.3116 7.32144 20.4172 7.57463 20.418 7.83887C20.4172 8.10311 20.3116 8.35629 20.1242 8.54299C19.9367 8.72968 19.6828 8.83466 19.418 8.83496H9.58008C9.31524 8.83466 9.06131 8.72968 8.87389 8.54299C8.68646 8.35629 8.58082 8.10311 8.58008 7.83887C8.58082 7.57463 8.68646 7.32144 8.87389 7.13475C9.06131 6.94806 9.31524 6.84307 9.58008 6.84277ZM9.58008 11.0479H19.418C19.6828 11.0481 19.9367 11.1531 20.1242 11.3398C20.3116 11.5265 20.4172 11.7797 20.418 12.0439C20.4186 12.1754 20.3933 12.3058 20.3433 12.4275C20.2934 12.5492 20.2198 12.6598 20.1269 12.7531C20.034 12.8464 19.9236 12.9204 19.8019 12.971C19.6802 13.0216 19.5498 13.0477 19.418 13.0479H9.58008C9.44828 13.0477 9.3178 13.0216 9.19614 12.971C9.07448 12.9204 8.96403 12.8464 8.87112 12.7531C8.77821 12.6598 8.70467 12.5492 8.65473 12.4275C8.60478 12.3058 8.57941 12.1754 8.58008 12.0439C8.58082 11.7797 8.68646 11.5265 8.87389 11.3398C9.06131 11.1531 9.31524 11.0481 9.58008 11.0479ZM9.58008 15.1631H19.418C19.6828 15.1634 19.9367 15.2684 20.1242 15.4551C20.3116 15.6418 20.4172 15.8949 20.418 16.1592C20.4186 16.2907 20.3933 16.421 20.3433 16.5427C20.2934 16.6644 20.2198 16.7751 20.1269 16.8683C20.034 16.9616 19.9236 17.0357 19.8019 17.0862C19.6802 17.1368 19.5498 17.1629 19.418 17.1631H9.58008C9.44828 17.1629 9.3178 17.1368 9.19614 17.0862C9.07448 17.0357 8.96403 16.9616 8.87112 16.8683C8.77821 16.7751 8.70467 16.6644 8.65473 16.5427C8.60478 16.421 8.57941 16.2907 8.58008 16.1592C8.58082 15.8949 8.68646 15.6418 8.87389 15.4551C9.06131 15.2684 9.31524 15.1634 9.58008 15.1631Z"
            fill="white" />
    </g>
    <defs>
    <filter id="filter0_d_67_4" x="-1.50293" y="0" width="32" height="32" filterUnits="userSpaceOnUse" color-interpolation-filters="sRGB">
    <feFlood flood-opacity="0" result="BackgroundImageFix"/>
    <feColorMatrix in="SourceAlpha" type="matrix" values="0 0 0 0 0 0 0 0 0 0 0 0 0 0 0 0 0 0 127 0" result="hardAlpha"/>
    <feOffset dy="4"/>
    <feGaussianBlur stdDeviation="2"/>
    <feComposite in2="hardAlpha" operator="out"/>
    <feColorMatrix type="matrix" values="0 0 0 0 0 0 0 0 0 0 0 0 0 0 0 0 0 0 0.25 0"/>
    <feBlend mode="normal" in2="BackgroundImageFix" result="effect1_dropShadow_67_4"/>
    <feBlend mode="normal" in="SourceGraphic" in2="effect1_dropShadow_67_4" result="shape"/>
    </filter>
    </defs>
</svg>
