<svg width="20" height="22" viewBox="0 0 20 22" fill="none" xmlns="http://www.w3.org/2000/svg">
<path fill-rule="evenodd" clip-rule="evenodd" d="M4.16434 16.0211C3.80934 15.5565 3.37809 14.6066 2.61059 13.4535C2.17559 12.8013 1.09684 11.5732 0.775589 10.9494C0.496839 10.3981 0.526839 10.151 0.593089 9.69413C0.710589 8.88143 1.51559 8.2486 2.37434 8.33402C3.02309 8.39743 3.57309 8.84131 4.06809 9.2606C4.36684 9.51296 4.73434 10.0034 4.95559 10.2804C5.15934 10.534 5.20934 10.6388 5.42684 10.9391C5.71434 11.3364 5.80434 11.5331 5.69434 11.0957C5.60559 10.4538 5.46059 9.35766 5.25059 8.38837C5.09059 7.65331 5.05184 7.53813 4.89934 6.9739C4.73809 6.37343 4.65559 5.95284 4.50434 5.31613C4.39934 4.86578 4.21059 3.94566 4.15934 3.42802C4.08809 2.72013 4.05059 1.56578 4.48934 1.03519C4.83309 0.61978 5.62184 0.494251 6.11059 0.750486C6.75059 1.08566 7.11434 2.04849 7.28059 2.43284C7.57934 3.1239 7.76434 3.92237 7.92559 4.9706C8.13059 6.30484 8.50809 8.15672 8.52059 8.54625C8.55059 8.06872 8.43559 7.06319 8.51559 6.60507C8.58809 6.18966 8.92559 5.70696 9.34809 5.57625C9.70559 5.46625 10.1243 5.42613 10.4931 5.50507C10.8843 5.5879 11.2968 5.87778 11.4506 6.15084C11.9031 6.95837 11.9118 8.60837 11.9306 8.52037C12.0381 8.03378 12.0193 6.9299 12.2856 6.47049C12.4606 6.16766 12.9068 5.8946 13.1443 5.8506C13.5118 5.78331 13.9631 5.7626 14.3493 5.84025C14.6606 5.90366 15.0818 6.28672 15.1956 6.47049C15.4681 6.91566 15.6231 8.17484 15.6693 8.61613C15.6881 8.7986 15.7618 8.10884 16.0356 7.66366C16.5431 6.83672 18.3393 6.67625 18.4081 8.4906C18.4393 9.33696 18.4331 9.29813 18.4331 9.86754C18.4331 10.5366 18.4181 10.9391 18.3831 11.4231C18.3443 11.9407 18.2368 13.1106 18.0806 13.6774C17.9731 14.067 17.6168 14.9431 17.2656 15.4685C17.2656 15.4685 15.9231 17.0861 15.7768 17.8147C15.6293 18.542 15.6781 18.5472 15.6493 19.0635C15.6206 19.5786 15.8006 20.2567 15.8006 20.2567C15.8006 20.2567 14.7981 20.3913 14.2581 20.302C13.7693 20.2205 13.1643 19.2137 13.0081 18.9057C12.7931 18.4812 12.3343 18.5627 12.1556 18.8759C11.8743 19.3715 11.2693 20.2606 10.8418 20.3163C10.0068 20.425 8.27434 20.3564 6.91809 20.3421C6.91809 20.3421 7.14934 19.0338 6.63434 18.5847C6.25309 18.2495 5.59684 17.5701 5.20434 17.213L4.16434 16.0211Z" fill="orange"/>
<path fill-rule="evenodd" clip-rule="evenodd" d="M4.16434 16.0211C3.80934 15.5565 3.37809 14.6066 2.61059 13.4535C2.17559 12.8013 1.09684 11.5732 0.775589 10.9494C0.496839 10.3981 0.526839 10.151 0.593089 9.69413C0.710589 8.88143 1.51559 8.2486 2.37434 8.33402C3.02309 8.39743 3.57309 8.84131 4.06809 9.2606C4.36684 9.51296 4.73434 10.0034 4.95559 10.2804C5.15934 10.534 5.20934 10.6388 5.42684 10.9391C5.71434 11.3364 5.80434 11.5331 5.69434 11.0957C5.60559 10.4538 5.46059 9.35766 5.25059 8.38837C5.09059 7.65331 5.05184 7.53813 4.89934 6.9739C4.73809 6.37343 4.65559 5.95284 4.50434 5.31613C4.39934 4.86578 4.21059 3.94566 4.15934 3.42802C4.08809 2.72013 4.05059 1.56578 4.48934 1.03519C4.83309 0.61978 5.62184 0.494251 6.11059 0.750486C6.75059 1.08566 7.11434 2.04849 7.28059 2.43284C7.57934 3.1239 7.76434 3.92237 7.92559 4.9706C8.13059 6.30484 8.50809 8.15672 8.52059 8.54625C8.55059 8.06872 8.43559 7.06319 8.51559 6.60507C8.58809 6.18966 8.92559 5.70696 9.34809 5.57625C9.70559 5.46625 10.1243 5.42613 10.4931 5.50507C10.8843 5.5879 11.2968 5.87778 11.4506 6.15084C11.9031 6.95837 11.9118 8.60837 11.9306 8.52037C12.0381 8.03378 12.0193 6.9299 12.2856 6.47049C12.4606 6.16766 12.9068 5.8946 13.1443 5.8506C13.5118 5.78331 13.9631 5.7626 14.3493 5.84025C14.6606 5.90366 15.0818 6.28672 15.1956 6.47049C15.4681 6.91566 15.6231 8.17484 15.6693 8.61613C15.6881 8.7986 15.7618 8.10884 16.0356 7.66366C16.5431 6.83672 18.3393 6.67625 18.4081 8.4906C18.4393 9.33696 18.4331 9.29813 18.4331 9.86754C18.4331 10.5366 18.4181 10.9391 18.3831 11.4231C18.3443 11.9407 18.2368 13.1106 18.0806 13.6774C17.9731 14.067 17.6168 14.9431 17.2656 15.4685C17.2656 15.4685 15.9231 17.0861 15.7768 17.8147C15.6293 18.542 15.6781 18.5472 15.6493 19.0635C15.6206 19.5786 15.8006 20.2567 15.8006 20.2567C15.8006 20.2567 14.7981 20.3913 14.2581 20.302C13.7693 20.2205 13.1643 19.2137 13.0081 18.9057C12.7931 18.4812 12.3343 18.5627 12.1556 18.8759C11.8743 19.3715 11.2693 20.2606 10.8418 20.3163C10.0068 20.425 8.27434 20.3564 6.91809 20.3421C6.91809 20.3421 7.14934 19.0338 6.63434 18.5847C6.25309 18.2495 5.59684 17.5701 5.20434 17.213L4.16434 16.0211Z" stroke="black" stroke-width="0.75" stroke-linecap="round" stroke-linejoin="round"/>
<path d="M14.4579 16.4798V12.0035" stroke="black" stroke-width="0.75" stroke-linecap="round"/>
<path d="M11.9385 16.495L11.9185 12.0005" stroke="black" stroke-width="0.75" stroke-linecap="round"/>
<path d="M9.44336 12.0414L9.46961 16.475" stroke="black" stroke-width="0.75" stroke-linecap="round"/>
</svg>
