<svg width="24" height="24" viewBox="0 0 24 24" fill="none" xmlns="http://www.w3.org/2000/svg">
<path d="M3 7.5H4.5C4.5 6 6 4.5 7.5 4.5V3C5.25 3 3 5.25 3 7.5Z" fill="white"/>
<path
        d="M14.898 13.137C15.906 11.769 16.5 10.0785 16.5 8.25C16.5 3.693 12.8055 0 8.25 0C3.6945 0 0 3.693 0 8.25C0 12.8055 3.6945 16.5 8.25 16.5C10.137 16.5 11.874 15.867 13.2645 14.802L13.5 15L22.5 24L24 22.5L15.0645 13.5135L14.898 13.137ZM8.25 15C4.5225 15 1.5 11.9775 1.5 8.25C1.5 4.5225 4.5225 1.5 8.25 1.5C11.9775 1.5 15 4.5225 15 8.25C15 11.9775 11.9775 15 8.25 15Z"
        fill="white" />
</svg>
